HIERARCHY
ROOT Hips
{
  OFFSET 35.5644 99.5536 17.105
  CHANNELS 6 Xposition Yposition Zposition Zrotation Xrotation Yrotation
  JOINT ToSpine
  {
    OFFSET -0.0105055 1.38907 -7.13956
    CHANNELS 3 Zrotation Xrotation Yrotation
    JOINT Spine
    {
      OFFSET 0.0105055 10 1
      CHANNELS 3 Zrotation Xrotation Yrotation
      JOINT Spine1
      {
        OFFSET 0 12 1.60637
        CHANNELS 3 Zrotation Xrotation Yrotation
        JOINT Neck
        {
          OFFSET 0 27 2.26658
          CHANNELS 3 Zrotation Xrotation Yrotation
          JOINT Head
          {
            OFFSET 0 9 2.12705
            CHANNELS 3 Zrotation Xrotation Yrotation
            End Site
            {
              OFFSET 0 11 2
            }
          }
        }
        JOINT LeftShoulder
        {
          OFFSET 8 19.6109 2.86452
          CHANNELS 3 Zrotation Xrotation Yrotation
          JOINT LeftArm
          {
            OFFSET 12 1 0.681055
            CHANNELS 3 Zrotation Xrotation Yrotation
            JOINT LeftForeArm
            {
              OFFSET 19 0 -1.52608
              CHANNELS 3 Zrotation Xrotation Yrotation
              JOINT LeftHand
              {
                OFFSET 23 0 0
                CHANNELS 3 Zrotation Xrotation Yrotation
                End Site
                {
                  OFFSET 10 0 0
                }
              }
            }
          }
        }
        JOINT RightShoulder
        {
          OFFSET -8 19.6109 2.86452
          CHANNELS 3 Zrotation Xrotation Yrotation
          JOINT RightArm
          {
            OFFSET -12 1 0.681055
            CHANNELS 3 Zrotation Xrotation Yrotation
            JOINT RightForeArm
            {
              OFFSET -19 0 -1.52608
              CHANNELS 3 Zrotation Xrotation Yrotation
              JOINT RightHand
              {
                OFFSET -23 0 0
                CHANNELS 3 Zrotation Xrotation Yrotation
                End Site
                {
                  OFFSET -10 0 0
                }
              }
            }
          }
        }
      }
    }
  }
  JOINT LeftUpLeg
  {
    OFFSET 9 -7.17245 0
    CHANNELS 3 Zrotation Xrotation Yrotation
    JOINT LeftLeg
    {
      OFFSET 0 -44.1113 0
      CHANNELS 3 Zrotation Xrotation Yrotation
      JOINT LeftFoot
      {
        OFFSET 0 -36.1829 0
        CHANNELS 3 Zrotation Xrotation Yrotation
        JOINT LeftToeBase
        {
          OFFSET 0 -4.84184 13
          CHANNELS 3 Zrotation Xrotation Yrotation
          End Site
          {
            OFFSET 0 1 6
          }
        }
      }
    }
  }
  JOINT RightUpLeg
  {
    OFFSET -9 -7.17245 0
    CHANNELS 3 Zrotation Xrotation Yrotation
    JOINT RightLeg
    {
      OFFSET 0 -44.0551 0
      CHANNELS 3 Zrotation Xrotation Yrotation
      JOINT RightFoot
      {
        OFFSET 0 -36.1469 0
        CHANNELS 3 Zrotation Xrotation Yrotation
        JOINT RightToeBase
        {
          OFFSET 0 -4.92256 13
          CHANNELS 3 Zrotation Xrotation Yrotation
          End Site
          {
            OFFSET 0 1 6
          }
        }
      }
    }
  }
}
MOTION
Frames:	12
Frame Time:	0.0333333
35.6067 99.5596 17.0836 -0.0183265 -6.91602 -4.1517 0 0 0 3.87887 -8.44336 1.24375 -6.14402 12.5533 2.37449 8.71839 2.84404 -1.67193 -5.08548 4.96181 2.47686 -22.8573 4.18017 -10.7622 -13.5538 19.4587 -48.0212 -51.6597 -61.1108 -55.1482 -21.0035 -0.392658 2.1202 23.0726 6.51668 18.4396 24.3614 6.86208 26.4091 35.5155 -39.4251 48.3366 5.58409 0.081903 1.71408 0.00767506 9.87467 7.10936 0.576025 4.78608 2.21109 0.0206031 -9.119 0.00168207 0.423642 1.0096 -1.97635 -2.43075 9.22184 -9.17222 -0.0567846 3.14878 -0.521535 -6.06414 -2.57888 -0.136907 2.6989 -9.85461 -1.7478 
35.6111 99.5698 16.9972 -0.110215 -6.71865 -4.33467 0 0 0 4.06454 -8.41198 1.29462 -6.13165 12.3236 2.38271 8.38071 2.95857 -1.51846 -4.89836 4.88397 2.47379 -23.2115 4.16572 -10.5582 -12.9188 19.8068 -48.0942 -53.1486 -61.1751 -56.5981 -20.3416 -0.33956 1.87871 23.0668 6.54633 18.5403 24.2363 6.90722 26.3846 35.4802 -39.4053 48.3114 5.54531 0.081666 1.68225 0.0990455 9.55979 7.14881 0.559729 4.95841 2.31027 -0.0231315 -9.11167 -0.00121845 0.374396 0.939839 -1.76095 -2.32216 8.84256 -8.97668 -0.0848286 3.27078 -0.617639 -6.78509 -2.112 -0.123256 2.78712 -10.1194 -2.29044 
35.2617 99.5431 16.9355 -0.778859 -6.93731 -4.30158 0 0 0 3.58921 -7.52304 1.2296 -4.76497 11.5209 1.84982 7.54023 3.50008 -1.2368 -4.84016 4.37773 2.481 -24.6721 4.23992 -10.1627 -10.9027 20.8198 -47.8831 -58.2797 -61.3704 -61.5139 -18.896 -0.18176 1.0984 23.1179 6.72842 19.1041 23.9932 6.79757 25.8636 35.2168 -39.4675 47.9965 5.61872 0.0860185 1.75097 1.61825 9.36968 8.48422 -0.315487 6.07185 0.761823 0.503059 -9.69231 0.0424185 0.476115 1.20439 -2.23797 -1.06267 9.21212 -7.88929 -0.529791 2.8776 -1.80656 -7.31478 -1.18965 -0.0742987 3.07297 -11.2552 -2.30224 
35.3238 99.5336 16.93 -0.546587 -6.76819 -4.24861 0 0 0 3.70592 -7.82561 1.29627 -5.24327 11.6854 2.05893 7.96102 3.44672 -1.46415 -5.10475 4.36318 2.45859 -24.2594 4.25445 -10.3858 -11.2582 20.6781 -47.845 -58.3193 -61.3351 -61.5567 -19.0014 -0.235692 1.40845 23.3107 6.68691 18.8321 24.1283 6.68476 26.13 34.6665 -39.6482 47.304 5.82436 0.0980211 1.92787 1.21352 9.24373 8.13702 -0.116795 5.83648 1.15719 0.505678 -9.42442 0.0416377 0.795531 2.19043 -3.64193 -1.39488 8.98825 -8.09583 -0.508234 3.07703 -1.72428 -6.245 -2.36841 -0.130546 2.54866 -9.2355 -1.92642 
35.3393 99.5357 16.8889 -0.489421 -6.66463 -4.31766 0 0 0 4.00256 -7.8642 1.33573 -5.71936 11.61 2.19962 8.03779 3.40844 -1.39098 -5.11292 4.4776 2.55949 -24.0373 4.21527 -10.3546 -11.4986 20.6153 -47.8957 -57.4171 -61.1546 -60.7542 -18.8089 -0.25037 1.51086 23.4957 6.72086 18.8139 23.7612 6.96614 26.0291 35.3677 -39.6931 48.0199 5.93763 0.0933811 1.79866 1.08593 9.07709 8.02341 -0.0767092 5.87115 1.2588 0.719435 -9.37852 0.059073 0.677865 2.05967 -3.16839 -1.49801 8.74994 -8.13236 -0.389962 3.20603 -1.55237 -7.04275 -1.99265 -0.120812 2.81496 -10.2311 -2.25027 
35.3397 99.5736 16.9163 -0.638672 -6.77853 -4.25885 0 0 0 3.93219 -7.73325 1.25554 -5.41436 11.583 2.05889 8.10245 3.51405 -1.4235 -5.27363 4.38383 2.59346 -23.9752 4.22531 -10.4142 -11.7581 20.462 -47.7146 -58.2047 -61.4205 -61.4327 -18.9971 -0.294739 1.76171 23.3977 6.74198 18.9508 23.95 6.89341 26.1064 35.3776 -40.0219 47.8344 5.98628 0.103291 1.97381 1.28801 9.30491 8.14842 -0.14534 5.6956 0.993021 0.713881 -9.2574 0.0572113 0.721602 2.02804 -3.34144 -1.35689 8.9295 -8.18284 -0.27564 3.08813 -1.34434 -7.65035 -1.04941 -0.0701465 3.12382 -11.4058 -2.95439 
35.3988 99.6148 16.8517 -0.487481 -6.53044 -4.36489 0 0 0 4.06558 -7.96111 1.34721 -5.60642 11.5518 2.24468 8.00773 3.51764 -1.42944 -5.07381 4.54579 2.51151 -24.0195 4.23852 -10.4386 -11.4893 20.5617 -47.827 -58.2798 -61.4001 -61.5079 -18.8705 -0.294086 1.76948 23.4803 6.72245 18.8301 23.701 7.19761 25.9236 36.3448 -39.9488 48.8892 5.66664 0.0932496 1.8831 0.948781 9.28381 7.81375 -0.0757721 5.01604 1.236 1.07662 -8.63232 0.0813523 0.485792 1.36552 -2.28975 -1.55486 8.51279 -8.27755 -0.380373 3.29193 -1.15507 -6.85619 -1.39492 -0.0836753 2.92159 -10.6042 -2.75156 
35.3282 99.601 16.8763 -0.620723 -6.672 -4.34092 0 0 0 3.86867 -7.87091 1.28467 -5.20301 11.6313 2.05263 7.5925 3.37037 -1.19041 -4.77012 4.84658 2.53423 -24.3495 4.2258 -10.2551 -11.3606 20.4865 -47.7718 -58.0264 -61.2046 -61.3146 -18.773 -0.282066 1.70622 23.1106 6.68217 18.9573 24.2133 6.92296 26.3498 35.5745 -40.5751 47.717 6.29789 0.10835 1.96968 1.25945 9.30444 8.13158 -0.260432 5.41272 0.85668 0.939354 -9.00922 0.0739898 0.435602 1.86008 -2.18408 -1.31286 8.73404 -8.07381 -0.47368 3.1617 -1.5169 -6.90875 -1.29002 -0.0760017 2.96108 -10.8012 -2.46921 
35.3429 99.6091 16.8818 -0.637519 -6.71114 -4.20518 0 0 0 4.07347 -7.86537 1.28499 -5.53816 11.6796 2.14026 7.95176 3.36296 -1.38627 -5.00075 4.82338 2.51754 -24.0396 4.23767 -10.4264 -11.355 20.5963 -47.8409 -58.8484 -61.4512 -62.0269 -18.7971 -0.269459 1.62781 23.4014 6.69394 18.7918 24.1653 6.82951 26.2817 35.7647 -40.4939 47.9641 6.22378 0.111657 2.05516 1.25041 9.39382 8.06398 -0.167342 5.26175 0.865746 1.00201 -8.82714 0.0772605 0.503217 1.43424 -2.37594 -1.34481 8.83997 -8.20915 -0.442639 3.16368 -1.31467 -5.89124 -1.81349 -0.09215 2.69627 -9.66231 -2.91035 
35.3599 99.59 16.8404 -0.582563 -6.6559 -4.34932 0 0 0 3.99658 -7.81856 1.31533 -5.44934 11.5412 2.13535 7.71191 3.42194 -1.27833 -4.79973 4.84112 2.4974 -24.2246 4.2307 -10.324 -11.2032 20.5838 -47.7276 -58.4933 -61.1709 -61.7568 -18.9008 -0.267912 1.60955 23.2244 6.67164 18.8428 24.1757 7.08376 26.3521 36.2469 -40.8173 48.2809 6.00813 0.115841 2.20635 1.14673 9.22154 8.0217 -0.132179 5.49303 1.03952 0.804036 -9.02577 0.0635341 0.493571 1.76807 -2.39646 -1.42721 8.65872 -8.18114 -0.345109 3.20622 -1.45767 -7.38232 -1.189 -0.0773493 3.06929 -11.2341 -2.41443 
35.2654 99.5848 16.8918 -0.72302 -6.86364 -4.22827 0 0 0 3.93805 -7.73332 1.33829 -5.30196 11.6641 2.1116 7.74479 3.43075 -1.38148 -4.70509 4.78397 2.38034 -24.3628 4.2501 -10.3277 -10.7668 20.7515 -48.0017 -58.6864 -61.3946 -61.8847 -19.0484 -0.271946 1.62069 23.3939 6.66404 18.6998 24.0306 7.03841 26.2787 36.0112 -40.6435 48.1352 6.30788 0.122168 2.21691 1.51897 9.42391 8.37624 -0.389199 5.65485 0.521975 1.01042 -9.06296 0.0801302 0.518404 1.64394 -2.47371 -1.16312 9.03733 -8.02936 -0.452063 3.07371 -1.58068 -6.96692 -1.34916 -0.0826208 2.93711 -10.6832 -2.60418 
35.3572 99.6037 16.8175 -0.597313 -6.66176 -4.36957 0 0 0 3.9761 -7.83817 1.35413 -5.34877 11.5504 2.15374 7.62863 3.46884 -1.30095 -4.6468 4.78004 2.40868 -24.5001 4.24593 -10.2557 -10.6865 20.6866 -47.9822 -59.128 -61.5666 -62.2575 -19.0716 -0.299645 1.78369 23.2538 6.68278 18.8585 24.2111 6.90363 26.1873 35.4199 -40.2116 47.7669 6.39329 0.124165 2.22313 1.16594 9.25145 8.02785 -0.0860245 5.39366 1.30165 0.640172 -8.98965 0.0502538 0.705439 1.87491 -3.24817 -1.39059 8.67312 -8.14652 -0.413528 3.23866 -1.2718 -6.67883 -1.41821 -0.0851513 2.93 -10.6189 -2.88775 
